o knife_top
v 0.000000 1.000000 -10.000000
v 0.000000 -1.000000 -10.000000
v 0.000000 0.000000 0.000000
v 0.100000 0.000000 -10.000000
v -0.100000 0.000000 -10.000000
v 0.000000 -1.000000 -5.000000
v 0.000000 1.000000 -5.000000
v 0.100000 0.000000 -5.000000
v -0.100000 0.000000 -5.000000
v 0.000000 1.500000 -10.000000
v 0.000000 -1.500000 -10.400000
v 0.000000 -1.500000 -10.000000
v 0.000000 1.500000 -10.400000
vt 0.500000 0.125000
vt 0.625000 0.125000
vt 0.625000 0.250000
vt 0.500000 0.250000
vt 0.500000 0.625000
vt 0.625000 0.625000
vt 0.500000 0.750000
vt 0.375000 0.625000
vt 0.375000 0.750000
vt 0.375000 0.125000
vt 0.375000 0.250000
vt 0.500000 0.000000
vt 0.375000 0.500000
vt 0.500000 0.500000
vt 0.625000 0.500000
vt 0.625000 0.000000
vn -0.9950 0.0995 0.0000
vn 0.9948 0.0995 0.0199
vn 0.9948 -0.0995 0.0199
vn -0.9950 -0.0995 0.0000
vn -0.9948 -0.0995 0.0199
vn 0.9950 -0.0995 0.0000
vn 0.9950 0.0995 0.0000
vn -0.9948 0.0995 0.0199
f 9/1/1 7/2/1 1/3/1 5/4/1
f 8/5/2 7/6/2 3/7/2
f 6/8/3 8/5/3 3/9/3
f 6/10/4 9/1/4 5/4/4 2/11/4
f 3/12/5 9/1/5 6/10/5
f 2/13/6 4/14/6 8/5/6 6/8/6
f 4/14/7 1/15/7 7/6/7 8/5/7
f 3/16/8 7/2/8 9/1/8