o knife_top
v 1.900000 0.200002 -6.000000
v -0.900000 0.200002 -6.000000
v 0.267906 0.200002 -9.001273
v 0.732094 0.200002 -9.001273
v -0.900000 0.199998 5.000000
v -0.900000 0.699998 5.000000
v -0.900000 0.700002 -6.000000
v 1.900000 0.700002 -6.000000
v 0.732094 0.700002 -9.001273
v 0.267906 0.700002 -9.001273
v 1.900000 0.199998 5.000000
v 1.900000 0.699998 5.000000
vt 0.000000 0.785643
vt 0.394366 0.785643
vt 0.229872 1.000000
vt 0.164494 1.000000
vt 0.859155 0.226067
vt 0.859155 0.998223
vt 0.788732 0.998223
vt 0.788732 0.226067
vt 0.788732 0.214357
vt 0.394366 0.214357
vt 0.558860 0.000000
vt 0.624238 0.000000
vt 0.929577 0.000000
vt 0.929577 0.772157
vt 0.859155 0.772157
vt 0.859155 0.000000
vt 0.929578 0.998224
vt 0.859155 0.998224
vt 0.929578 0.199982
vt 0.994956 0.199982
vt 0.994956 0.235693
vt 0.929578 0.235693
vt 0.788732 0.000000
vt 0.859155 0.000000
vt 1.000000 0.000000
vt 1.000000 0.199982
vt 0.929578 0.199982
vt 0.929578 0.000000
vt 0.000000 0.000000
vt 0.394366 0.000000
vt 0.788732 1.000000
vt 0.394366 1.000000
vn 0.7406 -0.6070 -0.2882
vn -0.7406 -0.6070 -0.2882
vn -0.5861 -0.7775 -0.2281
vn 0.5861 -0.7775 -0.2281
vn -1.0000 0.0000 0.0000
vn -0.7406 0.6070 -0.2882
vn 0.7406 0.6070 -0.2882
vn 0.5861 0.7775 -0.2281
vn -0.5861 0.7775 -0.2281
vn 1.0000 0.0000 0.0000
vn 0.0000 0.0000 -1.0000
vn 0.0000 0.0000 1.0000
vn 0.0000 -1.0000 -0.0000
vn 0.0000 1.0000 0.0000
f 1/1/1 2/2/2 3/3/3 4/4/4
f 2/5/5 5/6/5 6/7/5 7/8/5
f 7/9/6 8/10/7 9/11/8 10/12/9
f 11/13/10 1/14/10 8/15/10 12/16/10
f 8/15/7 1/14/1 4/17/4 9/18/8
f 4/19/11 3/20/11 10/21/11 9/22/11
f 2/5/2 7/8/6 10/23/9 3/24/3
f 5/25/12 11/26/12 12/27/12 6/28/12
f 2/2/13 1/1/13 11/29/13 5/30/13
f 6/31/14 12/32/14 8/10/14 7/9/14
