o knife_bottom
v 0.400000 -1.099998 -10.400000
v 0.400000 1.100002 -10.400000
v 0.400000 1.100002 -10.000000
v 0.400000 -1.099998 -10.000000
v -0.400000 -1.099998 -10.000000
v -0.400000 1.100002 -10.000000
v -0.400000 1.100002 -10.400000
v -0.400000 -1.099998 -10.400000
v 0.000000 -1.499998 -10.400000
v 0.000000 1.500002 -10.400000
v 0.000000 1.500002 -10.400000
v 0.000000 -1.499998 -10.400000
v 0.000000 -1.499998 -10.000000
v 0.000000 1.500002 -10.000000
v 0.000000 1.500002 -10.000000
v 0.000000 -1.499998 -10.000000
v 0.150000 -0.499998 -10.400000
v 0.250000 -0.399998 -10.400000
v 0.250000 0.400002 -10.400000
v 0.150000 0.500002 -10.400000
v -0.150000 0.500002 -10.400000
v -0.250000 0.400002 -10.400000
v -0.250000 -0.399998 -10.400000
v -0.150000 -0.499998 -10.400000
v 0.250000 -0.399998 -14.400000
v 0.250000 0.400002 -14.400000
v 0.150000 0.500002 -14.400000
v -0.150000 0.500002 -14.400000
v -0.250000 0.400002 -14.400000
v -0.250000 -0.399998 -14.400000
v -0.150000 -0.499998 -14.400000
v 0.150000 -0.499998 -14.400000
vt 0.658333 0.500000
vt 0.841667 0.500000
vt 0.841667 0.750000
vt 0.658333 0.750000
vt 0.158333 0.500000
vt 0.341667 0.500000
vt 0.341667 0.750000
vt 0.158333 0.750000
vt 0.375000 0.125000
vt 0.375000 0.125000
vt 0.408333 0.000000
vt 0.600000 0.250000
vt 0.625000 0.300000
vt 0.625000 0.450000
vt 0.600000 0.500000
vt 0.591667 0.000000
vt 0.625000 0.125000
vt 0.625000 0.125000
vt 0.591667 0.500000
vt 0.625000 0.625000
vt 0.625000 0.625000
vt 0.500000 0.750000
vt 0.500000 0.750000
vt 0.500000 1.000000
vt 0.500000 1.000000
vt 0.375000 0.800000
vt 0.400000 0.750000
vt 0.600000 0.750000
vt 0.625000 0.800000
vt 0.625000 0.950000
vt 0.600000 1.000000
vt 0.400000 1.000000
vt 0.375000 0.950000
vt 0.400000 0.500000
vt 0.675000 0.500000
vt 0.825000 0.500000
vt 0.825000 0.750000
vt 0.675000 0.750000
vt 0.400000 0.000000
vt 0.600000 0.000000
vt 0.400000 0.250000
vt 0.175000 0.500000
vt 0.175000 0.750000
vt 0.125000 0.750000
vt 0.125000 0.500000
vt 0.875000 0.500000
vt 0.875000 0.750000
vt 0.325000 0.750000
vt 0.325000 0.500000
vt 0.500000 0.250000
vt 0.500000 0.500000
vt 0.375000 0.500000
vt 0.375000 0.250000
vt 0.625000 0.750000
vt 0.625000 1.000000
vt 0.500000 0.500000
vt 0.500000 0.250000
vt 0.625000 0.250000
vt 0.625000 0.500000
vt 0.375000 1.000000
vt 0.375000 0.750000
vt 0.591667 0.250000
vt 0.375000 0.625000
vt 0.375000 0.625000
vt 0.408333 0.500000
vt 0.408333 0.250000
vt 0.591667 0.750000
vt 0.408333 0.750000
vt 0.375000 0.450000
vt 0.375000 0.300000
vn 1.0000 0.0000 0.0000
vn -1.0000 0.0000 0.0000
vn 0.0000 0.0000 0.0000
vn 0.0000 0.0000 1.0000
vn 0.0000 0.0000 -1.0000
vn 0.5000 0.5000 0.7071
vn 0.0000 1.0000 0.0000
vn -0.7071 -0.7071 -0.0000
vn -0.7071 0.7071 0.0000
vn 0.7071 -0.7071 -0.0000
vn 0.7071 0.7071 0.0000
vn 0.0000 -1.0000 -0.0000
vn 0.5000 -0.5000 0.7071
f 1/1/1 2/2/1 3/3/1 4/4/1
f 5/5/2 6/6/2 7/7/2 8/8/2
f 16/9/3 13/10/3 4/11/4
f 29/12/5 28/13/5 27/14/5 26/15/5
f 3/16/4 14/17/3 15/18/3
f 7/19/5 10/20/4 11/21/6
f 9/22/3 12/23/3 13/24/3 16/25/3
f 25/34/1 26/15/1 19/28/1 18/27/1
f 27/35/7 28/36/7 21/37/7 20/38/7
f 23/39/2 22/40/2 29/12/2 30/41/2
f 31/42/8 24/43/8 23/44/8 30/45/8
f 21/37/9 28/36/9 29/46/9 22/47/9
f 17/48/10 32/49/10 25/34/10 18/27/10
f 27/35/11 20/38/11 19/28/11 26/15/11
f 31/42/12 32/49/12 17/48/12 24/43/12
f 11/50/11 14/51/11 3/52/11 2/53/11
f 13/24/10 12/23/10 1/54/10 4/55/10
f 15/56/9 10/57/9 7/58/9 6/59/9
f 9/22/8 16/25/8 5/60/8 8/61/8
f 11/50/3 10/57/3 15/56/3 14/51/3
f 26/15/5 25/34/5 30/41/5 29/12/5
f 15/18/3 6/62/4 3/16/4
f 12/63/13 9/64/4 8/65/5
f 5/66/4 16/9/3 4/11/4
f 4/11/4 3/16/4 6/62/4 5/66/4
f 11/21/6 2/67/5 7/19/5
f 1/68/5 12/63/13 8/65/5
f 8/65/5 7/19/5 2/67/5 1/68/5
f 25/34/5 32/69/5 31/70/5 30/41/5