o knife_bottom
v 1.600000 -0.000002 8.200000
v 1.600000 -0.000002 5.000000
v 1.600000 0.999998 5.000000
v 1.600000 0.999998 8.200000
v -0.600000 -0.000002 5.000000
v -0.600000 -0.000002 8.200000
v -0.600000 0.999998 8.200000
v -0.600000 0.999998 5.000000
v -2.000000 -0.500002 5.000000
v 3.000000 -0.500002 5.000000
v 3.000000 -0.500002 5.300000
v -2.000000 -0.500002 5.300000
v -2.000000 1.499998 5.300002
v 3.000000 1.499998 5.300002
v 3.000000 1.499998 5.000000
v -2.000000 1.499998 5.000000
vt 0.000000 1.000000
vt 0.000000 0.609756
vt 0.128205 0.609756
vt 0.128205 1.000000
vt 0.794872 0.390244
vt 0.794872 0.000000
vt 0.923077 0.000000
vt 0.923077 0.390244
vt 0.128205 0.878049
vt 0.128205 0.609756
vt 0.256410 0.609756
vt 0.256410 0.878049
vt 0.961538 0.609756
vt 0.961538 0.000000
vt 1.000000 0.000000
vt 1.000000 0.609756
vt 0.923077 0.609756
vt 0.923077 0.000000
vt 0.961538 0.000000
vt 0.961538 0.609756
vt 0.256410 0.609756
vt 0.256410 0.000000
vt 0.512820 0.000000
vt 0.512820 0.609756
vt 0.256410 0.000000
vt 0.256410 0.609756
vt 0.000000 0.609756
vt 0.000000 0.000000
vt 0.256410 0.609756
vt 0.294872 0.609756
vt 0.294872 0.853659
vt 0.256410 0.853659
vt 0.333334 0.853659
vt 0.294872 0.853659
vt 0.294872 0.609756
vt 0.333334 0.609756
vt 0.512820 0.000000
vt 0.794872 0.000000
vt 0.794872 0.390244
vt 0.512820 0.390244
vt 0.794872 0.780488
vt 0.512820 0.780488
vt 0.512820 0.390244
vt 0.794872 0.390244
vn 1.0000 0.0000 0.0000
vn -1.0000 0.0000 0.0000
vn 0.0000 0.0000 1.0000
vn 0.0000 -1.0000 0.0000
vn 0.0000 1.0000 0.0000
vn 0.0000 0.0000 -1.0000
f 1/1/1 2/2/1 3/3/1 4/4/1
f 5/5/2 6/6/2 7/7/2 8/8/2
f 6/9/3 1/10/3 4/11/3 7/12/3
f 9/13/4 10/14/4 11/15/4 12/16/4
f 13/17/5 14/18/5 15/19/5 16/20/5
f 12/21/3 11/22/3 14/23/3 13/24/3
f 10/25/6 9/26/6 16/27/6 15/28/6
f 11/29/1 10/30/1 15/31/1 14/32/1
f 9/33/2 12/34/2 13/35/2 16/36/2
f 7/37/5 4/38/5 3/39/5 8/40/5
f 5/41/4 2/42/4 1/43/4 6/44/4
