o kunai
v -0.000001 6.000000 0.000000
v -1.000000 3.000000 0.000000
v -0.000000 3.000000 1.000000
v 1.000000 3.000000 -0.000000
v -0.000001 3.000000 -1.000000
v 0.000001 2.000000 -0.000000
v -0.478353 2.254850 0.000000
v -1.154848 1.578354 0.000000
v -1.087199 1.550333 0.176777
v -0.450332 2.187200 0.176777
v -0.923879 1.482683 0.250000
v -0.382682 2.023880 0.250000
v -0.760558 1.415034 0.176777
v -0.315033 1.860559 0.176777
v -0.692909 1.387012 0.000000
v -0.287012 1.792910 0.000000
v -0.760558 1.415034 -0.176777
v -0.315033 1.860559 -0.176777
v -0.923879 1.482683 -0.250000
v -0.382682 2.023880 -0.250000
v -1.087199 1.550333 -0.176777
v -0.450332 2.187200 -0.176777
v -1.154848 0.621646 0.000000
v -1.087199 0.649667 0.176777
v -0.923879 0.717317 0.250000
v -0.760558 0.784966 0.176777
v -0.692909 0.812987 0.000000
v -0.760558 0.784966 -0.176777
v -0.923879 0.717317 -0.250000
v -1.087199 0.649667 -0.176777
v -0.478353 -0.054850 0.000000
v -0.450332 0.012800 0.176777
v -0.382682 0.176120 0.250000
v -0.315033 0.339441 0.176777
v -0.287011 0.407090 0.000000
v -0.315033 0.339441 -0.176777
v -0.382682 0.176120 -0.250000
v -0.450332 0.012800 -0.176777
v 0.478355 -0.054850 -0.000000
v 0.450334 0.012800 0.176777
v 0.382684 0.176120 0.250000
v 0.315035 0.339441 0.176777
v 0.287013 0.407090 -0.000000
v 0.315035 0.339441 -0.176777
v 0.382684 0.176121 -0.250000
v 0.450334 0.012800 -0.176777
v 1.154850 0.621645 -0.000000
v 1.087201 0.649667 0.176777
v 0.923880 0.717316 0.250000
v 0.760560 0.784966 0.176777
v 0.692910 0.812987 -0.000000
v 0.760560 0.784966 -0.176777
v 0.923880 0.717317 -0.250000
v 1.087201 0.649667 -0.176777
v 1.154850 1.578354 -0.000000
v 1.087201 1.550333 0.176777
v 0.923880 1.482683 0.250000
v 0.760560 1.415034 0.176777
v 0.692910 1.387012 -0.000000
v 0.760560 1.415034 -0.176777
v 0.923880 1.482684 -0.250000
v 1.087201 1.550333 -0.176777
v 0.478356 2.254849 -0.000000
v 0.450334 2.187200 0.176777
v 0.382685 2.023879 0.250000
v 0.315035 1.860559 0.176777
v 0.287014 1.792910 -0.000000
v 0.315035 1.860559 -0.176777
v 0.382685 2.023879 -0.250000
v 0.450334 2.187200 -0.176777
vt 0.207987 0.000000
vt 0.207987 0.521347
vt 0.000000 0.469551
vt 0.415974 0.097910
vt 0.415974 0.619256
vt 0.207987 0.149705
vt 0.611746 0.000000
vt 0.611746 0.388262
vt 0.415974 0.297883
vt 0.441105 0.528536
vt 0.611746 0.235180
vt 0.795039 0.000000
vt 0.795039 0.350075
vt 0.279859 0.000000
vt 0.071872 0.619257
vt 0.613661 0.468545
vt 0.491352 0.890352
vt 0.415974 0.762843
vt 0.441522 0.754703
vt 0.512484 0.874743
vt 0.467179 0.746368
vt 0.527482 0.848375
vt 0.894253 0.822735
vt 0.833951 0.752404
vt 0.859608 0.739197
vt 0.909251 0.797095
vt 0.885156 0.738414
vt 0.930383 0.791162
vt 0.329294 0.719727
vt 0.306285 0.811054
vt 0.279394 0.807756
vt 0.304649 0.707513
vt 0.252916 0.811365
vt 0.283594 0.689597
vt 0.227500 0.873275
vt 0.252916 0.963957
vt 0.237821 0.990177
vt 0.207913 0.883465
vt 0.210941 1.000000
vt 0.179171 0.886648
vt 0.415974 0.610517
vt 0.441522 0.611300
vt 0.467179 0.624507
vt 0.833951 0.630543
vt 0.859608 0.638878
vt 0.885156 0.647018
vt 0.329294 0.887453
vt 0.304649 0.891614
vt 0.283594 0.913231
vt 0.895729 0.035988
vt 0.864198 0.127030
vt 0.843081 0.116948
vt 0.880187 0.009812
vt 0.814435 0.113802
vt 0.853849 0.000000
vt 0.821273 0.271502
vt 0.801476 0.267898
vt 0.795039 0.119437
vt 0.512484 0.528536
vt 0.527482 0.554176
vt 0.894253 0.528536
vt 0.909250 0.554904
vt 0.930383 0.570513
vt 1.000000 0.539700
vt 0.978098 0.606681
vt 0.949520 0.602057
vt 0.973561 0.528536
vt 0.365620 0.909966
vt 0.357658 0.935524
vt 0.869669 0.253189
vt 0.849519 0.265409
vt 0.870358 0.380719
vt 0.847686 0.370718
vt 0.612840 0.554894
vt 0.612762 0.576574
vt 0.597764 0.602942
vt 0.527559 0.584503
vt 0.999374 0.602057
vt 0.999374 0.706031
vt 0.978098 0.701407
vt 0.949520 0.706031
vt 0.930383 0.717194
vt 0.930383 0.590894
vt 0.158112 0.649607
vt 0.084048 0.719948
vt 0.062993 0.702032
vt 0.150150 0.619257
vt 0.895729 0.368229
vt 0.807450 0.929127
vt 0.712425 0.868062
vt 0.736730 0.859424
vt 0.826189 0.916912
vt 0.757930 0.838834
vt 0.833951 0.887686
vt 0.673064 0.678581
vt 0.647406 0.686916
vt 0.621859 0.695056
vt 0.576632 0.618551
vt 1.000000 0.768388
vt 0.973561 0.779551
vt 0.959586 0.806502
vt 0.053370 0.841716
vt 0.026892 0.845326
vt 0.000000 0.842028
vt 0.038348 0.689817
vt 0.673064 0.721936
vt 0.699675 0.721858
vt 0.726442 0.721934
vt 0.673064 0.800442
vt 0.647406 0.787235
vt 0.621859 0.786452
vt 0.987413 0.042354
vt 0.954797 0.106069
vt 0.926889 0.098333
vt 0.962690 0.028398
vt 0.907367 0.084953
vt 0.950855 0.000000
vt 0.084048 0.943582
vt 0.062993 0.965199
vt 0.038348 0.969361
vt 0.712425 0.576350
vt 0.736730 0.584800
vt 0.757930 0.605465
vt 0.612762 0.870773
vt 0.597764 0.845133
vt 0.974742 0.103628
vt 0.965161 0.207073
vt 0.946068 0.200313
vt 0.917309 0.201779
vt 0.895729 0.210612
vt 0.158112 0.965874
vt 0.150150 0.991432
vt 0.252916 0.631737
vt 0.214165 0.734995
vt 0.185813 0.728939
vt 0.226974 0.619257
vt 0.158112 0.880960
vt 0.164364 0.732489
vt 0.826189 0.528536
vt 0.833951 0.557653
vt 0.527559 0.826695
vt 0.987413 0.283431
vt 0.966341 0.269880
vt 0.939560 0.278137
vt 0.365620 0.649607
vt 0.357658 0.619257
vt 0.232813 0.747108
vn -0.6882 0.2294 0.6882
vn 0.6882 0.2294 0.6882
vn 0.6882 0.2294 -0.6882
vn 0.5774 -0.5773 -0.5774
vn -0.6882 0.2294 -0.6882
vn 0.5774 -0.5773 0.5774
vn -0.5773 -0.5774 0.5774
vn -0.5773 -0.5774 -0.5774
vn -0.6604 0.6604 0.3574
vn -0.2893 0.2893 0.9125
vn 0.2893 -0.2893 0.9125
vn 0.6604 -0.6604 0.3574
vn 0.6604 -0.6604 -0.3574
vn 0.2893 -0.2893 -0.9125
vn -0.2893 0.2893 -0.9125
vn -0.6604 0.6604 -0.3574
vn -0.9339 0.0000 0.3574
vn -0.4091 0.0000 0.9125
vn 0.4091 0.0000 0.9125
vn 0.9339 0.0000 0.3574
vn 0.9339 0.0000 -0.3574
vn 0.4091 0.0000 -0.9125
vn -0.4091 0.0000 -0.9125
vn -0.9339 0.0000 -0.3574
vn -0.6604 -0.6604 0.3574
vn -0.2893 -0.2893 0.9125
vn 0.2893 0.2893 0.9125
vn 0.6604 0.6604 0.3574
vn 0.6604 0.6604 -0.3574
vn 0.2893 0.2893 -0.9125
vn -0.2893 -0.2893 -0.9125
vn -0.6604 -0.6604 -0.3574
vn 0.0000 -0.9339 0.3574
vn 0.0000 -0.4091 0.9125
vn -0.0000 0.4091 0.9125
vn -0.0000 0.9340 0.3574
vn -0.0000 0.9339 -0.3574
vn -0.0000 0.4091 -0.9125
vn 0.0000 -0.4091 -0.9125
vn 0.0000 -0.9339 -0.3574
vn 0.0000 0.9339 0.3574
vn 0.0000 -0.9340 0.3574
vn -0.0000 -0.9340 -0.3574
f 1/1/1 2/2/1 3/3/1
f 4/4/2 1/5/2 3/6/2
f 1/7/3 4/8/3 5/9/3
f 4/8/4 6/10/4 5/9/4
f 2/11/5 1/12/5 5/13/5
f 4/4/6 3/6/6 6/14/6
f 3/3/7 2/2/7 6/15/7
f 2/11/8 5/13/8 6/16/8
f 7/17/9 8/18/9 9/19/9 10/20/9
f 10/20/10 9/19/10 11/21/10 12/22/10
f 12/23/11 11/24/11 13/25/11 14/26/11
f 14/26/12 13/25/12 15/27/12 16/28/12
f 16/29/13 15/30/13 17/31/13 18/32/13
f 18/32/14 17/31/14 19/33/14 20/34/14
f 20/35/15 19/36/15 21/37/15 22/38/15
f 22/38/16 21/37/16 8/39/16 7/40/16
f 8/18/17 23/41/17 24/42/17 9/19/17
f 9/19/18 24/42/18 25/43/18 11/21/18
f 11/24/19 25/44/19 26/45/19 13/25/19
f 13/25/20 26/45/20 27/46/20 15/27/20
f 15/30/21 27/47/21 28/48/21 17/31/21
f 17/31/22 28/48/22 29/49/22 19/33/22
f 19/50/23 29/51/23 30/52/23 21/53/23
f 21/53/24 30/52/24 23/54/24 8/55/24
f 23/54/25 31/56/25 32/57/25 24/58/25
f 24/42/26 32/59/26 33/60/26 25/43/26
f 25/44/27 33/61/27 34/62/27 26/45/27
f 26/45/28 34/62/28 35/63/28 27/46/28
f 27/64/29 35/65/29 36/66/29 28/67/29
f 28/48/30 36/68/30 37/69/30 29/49/30
f 29/51/31 37/70/31 38/71/31 30/52/31
f 30/52/32 38/71/32 31/56/32 23/54/32
f 31/56/33 39/72/33 40/73/33 32/57/33
f 32/59/34 40/74/34 41/75/34 33/60/34
f 33/60/35 41/75/35 42/76/35 34/77/35
f 34/78/36 42/79/36 43/80/36 35/65/36
f 35/65/37 43/80/37 44/81/37 36/66/37
f 36/66/38 44/81/38 45/82/38 37/83/38
f 37/84/39 45/85/39 46/86/39 38/87/39
f 38/71/40 46/88/40 39/72/40 31/56/40
f 39/89/12 47/90/12 48/91/12 40/92/12
f 40/92/11 48/91/11 49/93/11 41/94/11
f 41/75/10 49/95/10 50/96/10 42/76/10
f 42/76/9 50/96/9 51/97/9 43/98/9
f 43/80/16 51/99/16 52/100/16 44/81/16
f 44/81/15 52/100/15 53/101/15 45/82/15
f 45/85/14 53/102/14 54/103/14 46/86/14
f 46/86/13 54/103/13 47/104/13 39/105/13
f 47/90/20 55/106/20 56/107/20 48/91/20
f 48/91/19 56/107/19 57/108/19 49/93/19
f 49/95/18 57/109/18 58/110/18 50/96/18
f 50/96/17 58/110/17 59/111/17 51/97/17
f 51/112/24 59/113/24 60/114/24 52/115/24
f 52/115/23 60/114/23 61/116/23 53/117/23
f 53/102/22 61/118/22 62/119/22 54/103/22
f 54/103/21 62/119/21 55/120/21 47/104/21
f 55/106/28 63/121/28 64/122/28 56/107/28
f 56/107/27 64/122/27 65/123/27 57/108/27
f 57/109/26 65/124/26 66/125/26 58/110/26
f 58/126/25 66/127/25 67/128/25 59/113/25
f 59/113/32 67/128/32 68/129/32 60/114/32
f 60/114/31 68/129/31 69/130/31 61/116/31
f 61/118/30 69/131/30 70/132/30 62/119/30
f 62/133/29 70/134/29 63/135/29 55/136/29
f 63/135/41 7/40/41 10/137/41 64/138/41
f 64/122/35 10/139/35 12/140/35 65/123/35
f 65/124/34 12/22/34 14/141/34 66/125/34
f 66/127/42 14/142/42 16/143/42 67/128/42
f 67/128/43 16/143/43 18/144/43 68/129/43
f 68/145/39 18/32/39 20/34/39 69/146/39
f 69/147/38 20/35/38 22/38/38 70/134/38
f 70/134/37 22/38/37 7/40/37 63/135/37
