o raindrop
v 0.000000 2.000000 0.866025
v 0.000000 1.530734 0.707107
v 0.353553 1.530734 0.612372
v 0.433013 2.000000 0.750000
v 0.000000 3.965779 0.258819
v 0.000000 3.863703 0.500000
v 0.250000 3.863703 0.433013
v 0.129409 3.965779 0.224144
v 0.000000 0.522105 0.258818
v 0.000000 0.000000 -0.000001
v 0.129409 0.522105 0.224143
v 0.000000 3.464101 0.866026
v 0.000000 3.173413 0.965926
v 0.482963 3.173413 0.836516
v 0.433013 3.464101 0.750000
v 0.000000 2.435046 0.965926
v 0.482963 2.435046 0.836516
v 0.000000 4.000000 0.000000
v 0.000000 1.035276 0.500000
v 0.250000 1.035276 0.433013
v 0.000000 3.695518 0.707107
v 0.353553 3.695518 0.612373
v 0.000000 2.828427 1.000000
v 0.500000 2.828427 0.866025
v 0.224144 0.522105 0.129409
v 0.433012 1.035276 0.250000
v 0.750000 3.464101 0.433013
v 0.612372 3.695518 0.353554
v 0.836516 2.435045 0.482963
v 0.866025 2.828427 0.500000
v 0.612372 1.530734 0.353554
v 0.433013 3.863703 0.250000
v 0.836516 3.173413 0.482963
v 0.750000 2.000000 0.433013
v 0.224144 3.965779 0.129410
v 0.500000 3.863703 -0.000000
v 0.258819 3.965779 -0.000000
v 0.258819 0.522104 -0.000001
v 0.965926 3.173413 -0.000000
v 0.866025 3.464101 -0.000000
v 0.866025 2.000000 -0.000000
v 0.965925 2.435045 -0.000000
v 0.500000 1.035276 -0.000000
v 0.707107 3.695518 -0.000000
v 1.000000 2.828427 -0.000000
v 0.707106 1.530733 -0.000000
v 0.433012 1.035275 -0.249999
v 0.612372 1.530733 -0.353553
v 0.612372 3.695518 -0.353553
v 0.433012 3.863703 -0.250000
v 0.866025 2.828427 -0.499999
v 0.836516 3.173413 -0.482962
v 0.750000 2.000000 -0.433012
v 0.224144 3.965779 -0.129409
v 0.224144 0.522104 -0.129410
v 0.750000 3.464101 -0.433012
v 0.836516 2.435045 -0.482962
v 0.129409 3.965779 -0.224143
v 0.129409 0.522104 -0.224144
v 0.250000 1.035275 -0.433012
v 0.433013 3.464101 -0.749999
v 0.353553 3.695518 -0.612372
v 0.482963 2.435045 -0.836516
v 0.500000 2.828427 -0.866025
v 0.353553 1.530733 -0.612372
v 0.250000 3.863703 -0.433012
v 0.482963 3.173413 -0.836516
v 0.433012 1.999999 -0.749999
v 0.000000 1.530733 -0.707106
v 0.000000 1.999999 -0.866025
v 0.000000 3.863703 -0.499999
v 0.000000 3.965779 -0.258819
v 0.000000 0.522104 -0.258819
v 0.000000 3.173413 -0.965925
v 0.000000 3.464101 -0.866025
v 0.000000 2.435045 -0.965925
v 0.000000 1.035275 -0.499999
v 0.000000 3.695518 -0.707106
v 0.000000 2.828427 -0.999999
v -0.250000 1.035275 -0.433012
v -0.353553 1.530733 -0.612372
v -0.353553 3.695518 -0.612372
v -0.250000 3.863703 -0.433012
v -0.500000 2.828427 -0.866025
v -0.482963 3.173413 -0.836516
v -0.433012 1.999999 -0.749999
v -0.129409 3.965779 -0.224143
v -0.129409 0.522104 -0.224144
v -0.433013 3.464101 -0.749999
v -0.482963 2.435045 -0.836516
v -0.750000 2.000000 -0.433012
v -0.836516 2.435045 -0.482962
v -0.224144 3.965779 -0.129409
v -0.224143 0.522104 -0.129410
v -0.433012 1.035275 -0.249999
v -0.750000 3.464101 -0.433012
v -0.612372 3.695518 -0.353553
v -0.866025 2.828427 -0.499999
v -0.612372 1.530733 -0.353553
v -0.433013 3.863703 -0.249999
v -0.836516 3.173413 -0.482962
v -0.707106 1.530733 0.000001
v -0.866025 2.000000 -0.000000
v -0.500000 3.863703 -0.000000
v -0.258819 3.965779 -0.000000
v -0.258819 0.522104 -0.000001
v -0.965925 3.173413 -0.000000
v -0.866025 3.464101 -0.000000
v -0.965925 2.435045 -0.000000
v -0.499999 1.035275 -0.000000
v -0.707107 3.695518 -0.000000
v -0.999999 2.828427 0.000001
v -0.836516 2.435045 0.482963
v -0.866025 2.828427 0.500000
v -0.433012 1.035276 0.250000
v -0.612372 1.530733 0.353554
v -0.612372 3.695518 0.353554
v -0.433012 3.863703 0.250000
v -0.836516 3.173413 0.482963
v -0.749999 2.000000 0.433013
v -0.224144 3.965779 0.129410
v -0.224143 0.522104 0.129409
v -0.750000 3.464101 0.433013
v -0.433012 2.000000 0.750000
v -0.482963 2.435046 0.836516
v -0.129409 3.965779 0.224144
v -0.129409 0.522105 0.224143
v -0.250000 1.035276 0.433013
v -0.433012 3.464101 0.750000
v -0.353553 3.695518 0.612373
v -0.500000 2.828427 0.866025
v -0.353553 1.530734 0.612372
v -0.250000 3.863703 0.433013
v -0.482963 3.173413 0.836516
vt 0.835221 0.422908
vt 0.842499 0.326032
vt 0.907265 0.326032
vt 0.914543 0.422908
vt 0.616543 0.840314
vt 0.572905 0.853672
vt 0.572905 0.803091
vt 0.616543 0.814131
vt 0.863029 0.112140
vt 0.874882 0.000000
vt 0.886735 0.112140
vt 0.835221 0.698828
vt 0.830646 0.649352
vt 0.919118 0.649351
vt 0.914543 0.698828
vt 0.830646 0.510201
vt 0.919118 0.510201
vt 0.661172 0.827363
vt 0.851984 0.221660
vt 0.897780 0.221660
vt 0.533079 0.866622
vt 0.499528 0.878441
vt 0.499528 0.790833
vt 0.533079 0.795091
vt 0.829086 0.586146
vt 0.920678 0.586146
vt 0.907265 0.108457
vt 0.937441 0.214544
vt 0.538645 0.715652
vt 0.565017 0.733706
vt 0.995737 0.496455
vt 1.000000 0.571915
vt 0.963354 0.315969
vt 0.595489 0.759686
vt 0.995737 0.635605
vt 0.983237 0.410584
vt 0.628233 0.791663
vt 0.983237 0.686503
vt 0.634605 0.735085
vt 0.648482 0.778929
vt 0.118206 0.104667
vt 0.156451 0.000000
vt 0.138575 0.108269
vt 0.010099 0.681902
vt 0.000606 0.627226
vt 0.076624 0.640669
vt 0.078255 0.693955
vt 0.008510 0.484601
vt 0.025772 0.399094
vt 0.093929 0.411147
vt 0.084529 0.498045
vt 0.082282 0.207349
vt 0.121632 0.214308
vt 0.027672 0.724259
vt 0.083322 0.734100
vt 0.000000 0.561090
vt 0.078700 0.575007
vt 0.050847 0.306107
vt 0.106496 0.315948
vt 0.620336 0.698916
vt 0.167342 0.217426
vt 0.171140 0.320358
vt 0.684213 0.700042
vt 0.679773 0.735882
vt 0.170120 0.581244
vt 0.164929 0.646693
vt 0.173101 0.416548
vt 0.671862 0.779341
vt 0.162236 0.109883
vt 0.157427 0.699356
vt 0.172834 0.504069
vt 0.147965 0.738510
vt 0.692110 0.792789
vt 0.182850 0.109077
vt 0.207164 0.215868
vt 0.226401 0.696658
vt 0.204282 0.736307
vt 0.249764 0.501060
vt 0.249764 0.578129
vt 0.227457 0.318155
vt 0.739532 0.736783
vt 0.718889 0.761862
vt 0.241860 0.643684
vt 0.242074 0.413850
vt 0.516291 0.335470
vt 0.536174 0.254838
vt 0.592263 0.243621
vt 0.584985 0.321732
vt 0.741473 0.806064
vt 0.703800 0.815670
vt 0.592263 0.086156
vt 0.624646 0.000000
vt 0.612793 0.082051
vt 0.516291 0.608526
vt 0.503791 0.549983
vt 0.580410 0.534661
vt 0.584985 0.594788
vt 0.503791 0.412277
vt 0.580410 0.396954
vt 0.562087 0.171411
vt 0.601748 0.163479
vt 0.536174 0.658573
vt 0.592263 0.647356
vt 0.499528 0.484166
vt 0.578850 0.468303
vt 0.562087 0.698916
vt 0.601748 0.690984
vt 0.647544 0.163479
vt 0.657029 0.243622
vt 0.657029 0.647356
vt 0.647544 0.690984
vt 0.670443 0.468303
vt 0.668882 0.534661
vt 0.664307 0.321732
vt 0.741473 0.856644
vt 0.703800 0.841852
vt 0.636499 0.082051
vt 0.664307 0.594788
vt 0.668882 0.396954
vt 0.733002 0.335470
vt 0.745501 0.412277
vt 0.692110 0.864321
vt 0.657029 0.086156
vt 0.687205 0.171411
vt 0.733002 0.608526
vt 0.713118 0.658573
vt 0.749764 0.484166
vt 0.713118 0.254838
vt 0.687205 0.698916
vt 0.745501 0.549983
vt 0.718889 0.900050
vt 0.275536 0.399094
vt 0.300611 0.306106
vt 0.356261 0.315948
vt 0.343693 0.411147
vt 0.679773 0.924650
vt 0.671862 0.877055
vt 0.367970 0.104667
vt 0.406215 0.000000
vt 0.388339 0.108269
vt 0.259863 0.681902
vt 0.250370 0.627226
vt 0.326388 0.640669
vt 0.328019 0.693955
vt 0.258275 0.484601
vt 0.334293 0.498045
vt 0.332046 0.207349
vt 0.371396 0.214308
vt 0.277436 0.724259
vt 0.333086 0.734100
vt 0.249764 0.561090
vt 0.328464 0.575008
vt 0.739531 0.932211
vt 0.684213 0.967001
vt 0.422598 0.504069
vt 0.419884 0.581244
vt 0.417106 0.217426
vt 0.420904 0.320358
vt 0.620336 0.965875
vt 0.634605 0.923854
vt 0.414693 0.646693
vt 0.422865 0.416548
vt 0.648481 0.876643
vt 0.412000 0.109884
vt 0.407191 0.699356
vt 0.397730 0.738510
vt 0.491839 0.413850
vt 0.499528 0.501060
vt 0.628233 0.863194
vt 0.432614 0.109077
vt 0.456928 0.215868
vt 0.606396 1.000000
vt 0.538644 0.955001
vt 0.565017 0.929134
vt 0.499528 0.578129
vt 0.477221 0.318155
vt 0.595489 0.897874
vt 0.491624 0.643684
vt 0.476165 0.696658
vt 0.754027 0.635605
vt 0.749764 0.571915
vt 0.766527 0.410584
vt 0.786410 0.315969
vt 0.842499 0.108457
vt 0.766527 0.686503
vt 0.754027 0.496455
vt 0.812323 0.214544
vn 0.2460 -0.3109 0.9181
vn 0.1039 0.9159 0.3877
vn 0.2334 -0.4319 0.8712
vn 0.2456 0.3151 0.9167
vn 0.2527 -0.2165 0.9430
vn 0.0351 0.9908 0.1310
vn 0.2357 -0.4134 0.8795
vn 0.2157 0.5528 0.8049
vn 0.2579 -0.0834 0.9626
vn 0.2400 -0.3744 0.8957
vn 0.1666 0.7654 0.6216
vn 0.2576 0.0950 0.9616
vn 0.6439 -0.4134 0.6439
vn 0.5893 0.5528 0.5893
vn 0.7046 -0.0834 0.7046
vn 0.6557 -0.3744 0.6557
vn 0.4550 0.7654 0.4550
vn 0.7039 0.0950 0.7039
vn 0.6721 -0.3109 0.6721
vn 0.2838 0.9159 0.2838
vn 0.6378 -0.4319 0.6378
vn 0.6711 0.3151 0.6711
vn 0.6903 -0.2165 0.6903
vn 0.0959 0.9908 0.0959
vn 0.3877 0.9159 0.1039
vn 0.8712 -0.4319 0.2334
vn 0.9167 0.3151 0.2456
vn 0.9430 -0.2165 0.2527
vn 0.1310 0.9908 0.0351
vn 0.8795 -0.4134 0.2357
vn 0.8049 0.5528 0.2157
vn 0.9626 -0.0834 0.2579
vn 0.8957 -0.3744 0.2400
vn 0.6216 0.7654 0.1666
vn 0.9616 0.0950 0.2577
vn 0.9181 -0.3109 0.2460
vn 0.8957 -0.3744 -0.2400
vn 0.6216 0.7654 -0.1666
vn 0.9616 0.0950 -0.2577
vn 0.9181 -0.3109 -0.2460
vn 0.3877 0.9159 -0.1039
vn 0.8712 -0.4319 -0.2334
vn 0.9167 0.3151 -0.2456
vn 0.9430 -0.2165 -0.2527
vn 0.1310 0.9908 -0.0351
vn 0.8795 -0.4134 -0.2357
vn 0.8049 0.5528 -0.2157
vn 0.9626 -0.0834 -0.2579
vn 0.0959 0.9908 -0.0959
vn 0.6439 -0.4134 -0.6439
vn 0.5893 0.5528 -0.5893
vn 0.7046 -0.0834 -0.7046
vn 0.6557 -0.3744 -0.6557
vn 0.4550 0.7654 -0.4550
vn 0.7039 0.0950 -0.7039
vn 0.6721 -0.3109 -0.6721
vn 0.2838 0.9159 -0.2838
vn 0.6378 -0.4319 -0.6378
vn 0.6711 0.3151 -0.6711
vn 0.6903 -0.2165 -0.6903
vn 0.2460 -0.3109 -0.9181
vn 0.1039 0.9159 -0.3877
vn 0.2334 -0.4319 -0.8712
vn 0.2456 0.3151 -0.9167
vn 0.2527 -0.2165 -0.9430
vn 0.0351 0.9908 -0.1310
vn 0.2357 -0.4134 -0.8795
vn 0.2157 0.5528 -0.8049
vn 0.2579 -0.0834 -0.9626
vn 0.2400 -0.3744 -0.8957
vn 0.1666 0.7654 -0.6216
vn 0.2576 0.0950 -0.9616
vn -0.2400 -0.3744 -0.8957
vn -0.1666 0.7654 -0.6216
vn -0.2576 0.0950 -0.9616
vn -0.2460 -0.3109 -0.9181
vn -0.1039 0.9159 -0.3877
vn -0.2334 -0.4319 -0.8712
vn -0.2456 0.3151 -0.9167
vn -0.2527 -0.2165 -0.9430
vn -0.0351 0.9908 -0.1310
vn -0.2357 -0.4134 -0.8795
vn -0.2157 0.5528 -0.8049
vn -0.2579 -0.0834 -0.9626
vn -0.6903 -0.2165 -0.6903
vn -0.0959 0.9908 -0.0959
vn -0.6439 -0.4134 -0.6439
vn -0.5893 0.5528 -0.5893
vn -0.7046 -0.0834 -0.7046
vn -0.6557 -0.3744 -0.6557
vn -0.4550 0.7654 -0.4550
vn -0.7039 0.0950 -0.7039
vn -0.6721 -0.3109 -0.6721
vn -0.2838 0.9159 -0.2838
vn -0.6378 -0.4319 -0.6378
vn -0.6711 0.3151 -0.6711
vn -0.9181 -0.3109 -0.2460
vn -0.3877 0.9159 -0.1039
vn -0.8712 -0.4319 -0.2334
vn -0.9167 0.3151 -0.2456
vn -0.9430 -0.2165 -0.2527
vn -0.1310 0.9908 -0.0351
vn -0.8795 -0.4134 -0.2357
vn -0.8049 0.5528 -0.2157
vn -0.9626 -0.0834 -0.2579
vn -0.8957 -0.3744 -0.2400
vn -0.6216 0.7654 -0.1666
vn -0.9616 0.0950 -0.2576
vn -0.9626 -0.0834 0.2579
vn -0.8957 -0.3744 0.2400
vn -0.6216 0.7654 0.1666
vn -0.9616 0.0950 0.2576
vn -0.9181 -0.3109 0.2460
vn -0.3877 0.9159 0.1039
vn -0.8712 -0.4319 0.2334
vn -0.9167 0.3151 0.2456
vn -0.9430 -0.2165 0.2527
vn -0.1310 0.9908 0.0351
vn -0.8795 -0.4134 0.2357
vn -0.8049 0.5528 0.2157
vn -0.6903 -0.2165 0.6903
vn -0.0959 0.9908 0.0959
vn -0.6439 -0.4134 0.6439
vn -0.5893 0.5528 0.5893
vn -0.7046 -0.0834 0.7046
vn -0.6557 -0.3744 0.6557
vn -0.4550 0.7654 0.4550
vn -0.7039 0.0950 0.7039
vn -0.6721 -0.3109 0.6721
vn -0.2838 0.9159 0.2838
vn -0.6378 -0.4319 0.6378
vn -0.6711 0.3151 0.6711
vn -0.2576 0.0950 0.9616
vn -0.2460 -0.3109 0.9181
vn -0.1039 0.9159 0.3877
vn -0.2334 -0.4319 0.8712
vn -0.2456 0.3151 0.9167
vn -0.2527 -0.2165 0.9430
vn -0.0351 0.9908 0.1310
vn -0.2357 -0.4134 0.8795
vn -0.2157 0.5528 0.8049
vn -0.2579 -0.0834 0.9626
vn -0.2400 -0.3744 0.8957
vn -0.1666 0.7654 0.6216
f 1/1/1 2/2/1 3/3/1 4/4/1
f 5/5/2 6/6/2 7/7/2 8/8/2
f 9/9/3 10/10/3 11/11/3
f 12/12/4 13/13/4 14/14/4 15/15/4
f 16/16/5 1/1/5 4/4/5 17/17/5
f 18/18/6 5/5/6 8/8/6
f 19/19/7 9/9/7 11/11/7 20/20/7
f 21/21/8 12/22/8 15/23/8 22/24/8
f 23/25/9 16/16/9 17/17/9 24/26/9
f 2/2/10 19/19/10 20/20/10 3/3/10
f 6/6/11 21/21/11 22/24/11 7/7/11
f 13/13/12 23/25/12 24/26/12 14/14/12
f 20/20/13 11/11/13 25/27/13 26/28/13
f 22/24/14 15/23/14 27/29/14 28/30/14
f 24/26/15 17/17/15 29/31/15 30/32/15
f 3/3/16 20/20/16 26/28/16 31/33/16
f 7/7/17 22/24/17 28/30/17 32/34/17
f 14/14/18 24/26/18 30/32/18 33/35/18
f 4/4/19 3/3/19 31/33/19 34/36/19
f 8/8/20 7/7/20 32/34/20 35/37/20
f 11/11/21 10/10/21 25/27/21
f 15/15/22 14/14/22 33/35/22 27/38/22
f 17/17/23 4/4/23 34/36/23 29/31/23
f 18/18/24 8/8/24 35/37/24
f 35/37/25 32/34/25 36/39/25 37/40/25
f 25/41/26 10/42/26 38/43/26
f 27/44/27 33/45/27 39/46/27 40/47/27
f 29/48/28 34/49/28 41/50/28 42/51/28
f 18/18/29 35/37/29 37/40/29
f 26/52/30 25/41/30 38/43/30 43/53/30
f 28/54/31 27/44/31 40/47/31 44/55/31
f 30/56/32 29/48/32 42/51/32 45/57/32
f 31/58/33 26/52/33 43/53/33 46/59/33
f 32/34/34 28/30/34 44/60/34 36/39/34
f 33/45/35 30/56/35 45/57/35 39/46/35
f 34/49/36 31/58/36 46/59/36 41/50/36
f 46/59/37 43/53/37 47/61/37 48/62/37
f 36/39/38 44/60/38 49/63/38 50/64/38
f 39/46/39 45/57/39 51/65/39 52/66/39
f 41/50/40 46/59/40 48/62/40 53/67/40
f 37/40/41 36/39/41 50/64/41 54/68/41
f 38/43/42 10/42/42 55/69/42
f 40/47/43 39/46/43 52/66/43 56/70/43
f 42/51/44 41/50/44 53/67/44 57/71/44
f 18/18/45 37/40/45 54/68/45
f 43/53/46 38/43/46 55/69/46 47/61/46
f 44/55/47 40/47/47 56/70/47 49/72/47
f 45/57/48 42/51/48 57/71/48 51/65/48
f 18/18/49 54/68/49 58/73/49
f 47/61/50 55/69/50 59/74/50 60/75/50
f 49/72/51 56/70/51 61/76/51 62/77/51
f 51/65/52 57/71/52 63/78/52 64/79/52
f 48/62/53 47/61/53 60/75/53 65/80/53
f 50/64/54 49/63/54 62/81/54 66/82/54
f 52/66/55 51/65/55 64/79/55 67/83/55
f 53/67/56 48/62/56 65/80/56 68/84/56
f 54/68/57 50/64/57 66/82/57 58/73/57
f 55/69/58 10/42/58 59/74/58
f 56/70/59 52/66/59 67/83/59 61/76/59
f 57/71/60 53/67/60 68/84/60 63/78/60
f 68/85/61 65/86/61 69/87/61 70/88/61
f 58/73/62 66/82/62 71/89/62 72/90/62
f 59/91/63 10/92/63 73/93/63
f 61/94/64 67/95/64 74/96/64 75/97/64
f 63/98/65 68/85/65 70/88/65 76/99/65
f 18/18/66 58/73/66 72/90/66
f 60/100/67 59/91/67 73/93/67 77/101/67
f 62/102/68 61/94/68 75/97/68 78/103/68
f 64/104/69 63/98/69 76/99/69 79/105/69
f 65/86/70 60/100/70 77/101/70 69/87/70
f 66/106/71 62/102/71 78/103/71 71/107/71
f 67/95/72 64/104/72 79/105/72 74/96/72
f 69/87/73 77/101/73 80/108/73 81/109/73
f 71/107/74 78/103/74 82/110/74 83/111/74
f 74/96/75 79/105/75 84/112/75 85/113/75
f 70/88/76 69/87/76 81/109/76 86/114/76
f 72/90/77 71/89/77 83/115/77 87/116/77
f 73/93/78 10/92/78 88/117/78
f 75/97/79 74/96/79 85/113/79 89/118/79
f 76/99/80 70/88/80 86/114/80 90/119/80
f 18/18/81 72/90/81 87/116/81
f 77/101/82 73/93/82 88/117/82 80/108/82
f 78/103/83 75/97/83 89/118/83 82/110/83
f 79/105/84 76/99/84 90/119/84 84/112/84
f 90/119/85 86/114/85 91/120/85 92/121/85
f 18/18/86 87/116/86 93/122/86
f 80/108/87 88/117/87 94/123/87 95/124/87
f 82/110/88 89/118/88 96/125/88 97/126/88
f 84/112/89 90/119/89 92/121/89 98/127/89
f 81/109/90 80/108/90 95/124/90 99/128/90
f 83/111/91 82/110/91 97/126/91 100/129/91
f 85/113/92 84/112/92 98/127/92 101/130/92
f 86/114/93 81/109/93 99/128/93 91/120/93
f 87/116/94 83/115/94 100/131/94 93/122/94
f 88/117/95 10/92/95 94/123/95
f 89/118/96 85/113/96 101/130/96 96/125/96
f 91/132/97 99/133/97 102/134/97 103/135/97
f 93/122/98 100/131/98 104/136/98 105/137/98
f 94/138/99 10/139/99 106/140/99
f 96/141/100 101/142/100 107/143/100 108/144/100
f 92/145/101 91/132/101 103/135/101 109/146/101
f 18/18/102 93/122/102 105/137/102
f 95/147/103 94/138/103 106/140/103 110/148/103
f 97/149/104 96/141/104 108/144/104 111/150/104
f 98/151/105 92/145/105 109/146/105 112/152/105
f 99/133/106 95/147/106 110/148/106 102/134/106
f 100/131/107 97/153/107 111/154/107 104/136/107
f 101/142/108 98/151/108 112/152/108 107/143/108
f 112/152/109 109/146/109 113/155/109 114/156/109
f 102/134/110 110/148/110 115/157/110 116/158/110
f 104/136/111 111/154/111 117/159/111 118/160/111
f 107/143/112 112/152/112 114/156/112 119/161/112
f 103/135/113 102/134/113 116/158/113 120/162/113
f 105/137/114 104/136/114 118/160/114 121/163/114
f 106/140/115 10/139/115 122/164/115
f 108/144/116 107/143/116 119/161/116 123/165/116
f 109/146/117 103/135/117 120/162/117 113/155/117
f 18/18/118 105/137/118 121/163/118
f 110/148/119 106/140/119 122/164/119 115/157/119
f 111/150/120 108/144/120 123/165/120 117/166/120
f 113/155/121 120/162/121 124/167/121 125/168/121
f 18/18/122 121/163/122 126/169/122
f 115/157/123 122/164/123 127/170/123 128/171/123
f 117/159/124 123/172/124 129/173/124 130/174/124
f 114/156/125 113/155/125 125/168/125 131/175/125
f 116/158/126 115/157/126 128/171/126 132/176/126
f 118/160/127 117/159/127 130/174/127 133/177/127
f 119/161/128 114/156/128 131/175/128 134/178/128
f 120/162/129 116/158/129 132/176/129 124/167/129
f 121/163/130 118/160/130 133/177/130 126/169/130
f 122/164/131 10/139/131 127/170/131
f 123/165/132 119/161/132 134/178/132 129/179/132
f 134/180/133 131/181/133 23/25/133 13/13/133
f 124/182/134 132/183/134 2/2/134 1/1/134
f 126/169/135 133/177/135 6/6/135 5/5/135
f 127/184/136 10/10/136 9/9/136
f 129/185/137 134/180/137 13/13/137 12/12/137
f 125/186/138 124/182/138 1/1/138 16/16/138
f 18/18/139 126/169/139 5/5/139
f 128/187/140 127/184/140 9/9/140 19/19/140
f 130/174/141 129/173/141 12/22/141 21/21/141
f 131/181/142 125/186/142 16/16/142 23/25/142
f 132/183/143 128/187/143 19/19/143 2/2/143
f 133/177/144 130/174/144 21/21/144 6/6/144
