o ring
v 0.000000 -0.087396 -1.000000
v 0.000000 0.087396 -1.000000
v 0.195090 -0.087396 -0.980785
v 0.195090 0.087396 -0.980785
v 0.382683 -0.087396 -0.923880
v 0.382683 0.087396 -0.923880
v 0.555570 -0.087396 -0.831470
v 0.555570 0.087396 -0.831470
v 0.707107 -0.087396 -0.707107
v 0.707107 0.087396 -0.707107
v 0.831470 -0.087396 -0.555570
v 0.831470 0.087396 -0.555570
v 0.923880 -0.087396 -0.382683
v 0.923880 0.087396 -0.382683
v 0.980785 -0.087396 -0.195090
v 0.980785 0.087396 -0.195090
v 1.000000 -0.087396 -0.000000
v 1.000000 0.087396 -0.000000
v 0.980785 -0.087396 0.195090
v 0.980785 0.087396 0.195090
v 0.923880 -0.087396 0.382683
v 0.923880 0.087396 0.382683
v 0.831470 -0.087396 0.555570
v 0.831470 0.087396 0.555570
v 0.707107 -0.087396 0.707107
v 0.707107 0.087396 0.707107
v 0.555570 -0.087396 0.831470
v 0.555570 0.087396 0.831470
v 0.382683 -0.087396 0.923880
v 0.382683 0.087396 0.923880
v 0.195090 -0.087396 0.980785
v 0.195090 0.087396 0.980785
v -0.000000 -0.087396 1.000000
v -0.000000 0.087396 1.000000
v -0.195091 -0.087396 0.980785
v -0.195091 0.087396 0.980785
v -0.382684 -0.087396 0.923879
v -0.382684 0.087396 0.923879
v -0.555571 -0.087396 0.831469
v -0.555571 0.087396 0.831469
v -0.707107 -0.087396 0.707106
v -0.707107 0.087396 0.707106
v -0.831470 -0.087396 0.555570
v -0.831470 0.087396 0.555570
v -0.923880 -0.087396 0.382683
v -0.923880 0.087396 0.382683
v -0.980785 -0.087396 0.195089
v -0.980785 0.087396 0.195089
v -1.000000 -0.087396 -0.000001
v -1.000000 0.087396 -0.000001
v -0.980785 -0.087396 -0.195091
v -0.980785 0.087396 -0.195091
v -0.923879 -0.087396 -0.382684
v -0.923879 0.087396 -0.382684
v -0.831469 -0.087396 -0.555571
v -0.831469 0.087396 -0.555571
v -0.707106 -0.087396 -0.707108
v -0.707106 0.087396 -0.707108
v -0.555569 -0.087396 -0.831470
v -0.555569 0.087396 -0.831470
v -0.382682 -0.087396 -0.923880
v -0.382682 0.087396 -0.923880
v -0.195089 -0.087396 -0.980786
v -0.195089 0.087396 -0.980786
vt 0.294728 0.500000
vt 0.294728 0.000000
vt 0.333333 0.000000
vt 0.333333 0.500000
vt 0.366164 0.000000
vt 0.366164 0.500000
vt 1.000000 0.000000
vt 1.000000 0.500000
vt 0.961395 0.500000
vt 0.961395 0.000000
vt 0.918500 0.500000
vt 0.918500 0.000000
vt 0.872963 0.500000
vt 0.872963 0.000000
vt 0.826534 0.500000
vt 0.826534 0.000000
vt 0.780997 0.500000
vt 0.780997 0.000000
vt 0.738102 0.500000
vt 0.738102 0.000000
vt 0.699497 0.500000
vt 0.699497 0.000000
vt 0.366164 0.500000
vt 0.366164 0.000000
vt 0.398994 0.000000
vt 0.398994 0.500000
vt 0.437599 0.000000
vt 0.437599 0.500000
vt 0.480494 0.000000
vt 0.480494 0.500000
vt 0.526031 0.000000
vt 0.526031 0.500000
vt 0.572460 0.000000
vt 0.572460 0.500000
vt 0.617997 0.000000
vt 0.617997 0.500000
vt 0.660892 0.000000
vt 0.660892 0.500000
vt 0.699497 0.000000
vt 0.699497 0.500000
vt 0.333333 0.500000
vt 0.333333 1.000000
vt 0.300503 1.000000
vt 0.300503 0.500000
vt 0.261898 1.000000
vt 0.261898 0.500000
vt 0.219003 1.000000
vt 0.219003 0.500000
vt 0.173466 1.000000
vt 0.173466 0.500000
vt 0.127037 1.000000
vt 0.127037 0.500000
vt 0.081500 1.000000
vt 0.081500 0.500000
vt 0.038605 1.000000
vt 0.038605 0.500000
vt 0.000000 1.000000
vt 0.000000 0.500000
vt 0.000000 0.000000
vt 0.032830 0.000000
vt 0.032830 0.500000
vt 0.071435 0.000000
vt 0.071435 0.500000
vt 0.114330 0.000000
vt 0.114330 0.500000
vt 0.159867 0.000000
vt 0.159867 0.500000
vt 0.206297 0.000000
vt 0.206297 0.500000
vt 0.251834 0.000000
vt 0.251834 0.500000
vn 0.0980 0.0000 -0.9952
vn 0.2903 0.0000 -0.9569
vn 0.4714 0.0000 -0.8819
vn 0.6344 0.0000 -0.7730
vn 0.7730 0.0000 -0.6344
vn 0.8819 0.0000 -0.4714
vn 0.9569 0.0000 -0.2903
vn 0.9952 0.0000 -0.0980
vn 0.9952 0.0000 0.0980
vn 0.9569 0.0000 0.2903
vn 0.8819 0.0000 0.4714
vn 0.7730 0.0000 0.6344
vn 0.6344 0.0000 0.7730
vn 0.4714 0.0000 0.8819
vn 0.2903 0.0000 0.9569
vn 0.0980 0.0000 0.9952
vn -0.0980 0.0000 0.9952
vn -0.2903 0.0000 0.9569
vn -0.4714 0.0000 0.8819
vn -0.6344 0.0000 0.7730
vn -0.7730 0.0000 0.6344
vn -0.8819 0.0000 0.4714
vn -0.9569 0.0000 0.2903
vn -0.9952 0.0000 0.0980
vn -0.9952 0.0000 -0.0980
vn -0.9569 0.0000 -0.2903
vn -0.8819 0.0000 -0.4714
vn -0.7730 0.0000 -0.6344
vn -0.6344 0.0000 -0.7730
vn -0.4714 0.0000 -0.8819
vn -0.2903 0.0000 -0.9569
vn -0.0980 0.0000 -0.9952
f 1/1/1 2/2/1 4/3/1 3/4/1
f 3/4/2 4/3/2 6/5/2 5/6/2
f 5/7/3 6/8/3 8/9/3 7/10/3
f 7/10/4 8/9/4 10/11/4 9/12/4
f 9/12/5 10/11/5 12/13/5 11/14/5
f 11/14/6 12/13/6 14/15/6 13/16/6
f 13/16/7 14/15/7 16/17/7 15/18/7
f 15/18/8 16/17/8 18/19/8 17/20/8
f 17/20/9 18/19/9 20/21/9 19/22/9
f 19/23/10 20/24/10 22/25/10 21/26/10
f 21/26/11 22/25/11 24/27/11 23/28/11
f 23/28/12 24/27/12 26/29/12 25/30/12
f 25/30/13 26/29/13 28/31/13 27/32/13
f 27/32/14 28/31/14 30/33/14 29/34/14
f 29/34/15 30/33/15 32/35/15 31/36/15
f 31/36/16 32/35/16 34/37/16 33/38/16
f 33/38/17 34/37/17 36/39/17 35/40/17
f 35/41/18 36/42/18 38/43/18 37/44/18
f 37/44/19 38/43/19 40/45/19 39/46/19
f 39/46/20 40/45/20 42/47/20 41/48/20
f 41/48/21 42/47/21 44/49/21 43/50/21
f 43/50/22 44/49/22 46/51/22 45/52/22
f 45/52/23 46/51/23 48/53/23 47/54/23
f 47/54/24 48/53/24 50/55/24 49/56/24
f 49/56/25 50/55/25 52/57/25 51/58/25
f 51/58/26 52/59/26 54/60/26 53/61/26
f 53/61/27 54/60/27 56/62/27 55/63/27
f 55/63/28 56/62/28 58/64/28 57/65/28
f 57/65/29 58/64/29 60/66/29 59/67/29
f 59/67/30 60/66/30 62/68/30 61/69/30
f 61/69/31 62/68/31 64/70/31 63/71/31
f 63/71/32 64/70/32 2/2/32 1/1/32
